<svg width="83" height="83" viewBox="0 0 83 83" fill="none" xmlns="http://www.w3.org/2000/svg">
<path d="M70.8449 70.8449C66.6886 75.0012 61.6968 78.2272 56.2 80.3093C50.7032 82.3913 44.8268 83.282 38.96 82.9222C33.0931 82.5624 27.3695 80.9605 22.1683 78.2224C16.9671 75.4844 12.4069 71.6726 8.78951 67.0396C5.17217 62.4067 2.58027 57.0581 1.18542 51.3481C-0.209419 45.6381 -0.375397 39.6969 0.698502 33.918C1.77239 28.139 4.06165 22.6541 7.4147 17.8263C10.7677 12.9986 15.1081 8.93827 20.1483 5.9141L30.8242 23.7071C28.304 25.2191 26.1339 27.2493 24.4573 29.6632C22.7808 32.077 21.6362 34.8195 21.0993 37.709C20.5623 40.5985 20.6453 43.569 21.3427 46.424C22.0401 49.279 23.3361 51.9533 25.1448 54.2698C26.9534 56.5863 29.2336 58.4922 31.8342 59.8612C34.4348 61.2302 37.2965 62.0312 40.23 62.2111C43.1634 62.391 46.1016 61.9457 48.85 60.9046C51.5984 59.8636 54.0943 58.2506 56.1725 56.1725L70.8449 70.8449Z" fill="#8A79FF"/>
<path d="M41.4998 83C48.3246 83 55.0439 81.3169 61.0628 78.0997C67.0817 74.8826 72.2142 70.2307 76.0058 64.5562C79.7974 58.8816 82.1311 52.3596 82.8 45.5677C83.4689 38.7759 82.4526 31.9239 79.8408 25.6186C77.2291 19.3134 73.1027 13.7496 67.8272 9.42007C62.5516 5.09051 56.2897 2.12885 49.5961 0.797414C42.9025 -0.534023 35.9839 -0.194132 29.453 1.78698C22.9222 3.76809 16.5999 7.47 12.1549 12.1551L24.8999 14.94L26.8274 26.8275C29.2403 24.4146 32.211 22.634 35.4764 21.6435C38.7419 20.6529 42.2012 20.483 45.548 21.1487C48.8948 21.8144 52.0257 23.2953 54.6635 25.46C57.3013 27.6248 59.3645 30.4067 60.6703 33.5593C61.9762 36.7119 62.4844 40.1379 62.1499 43.5339C61.8155 46.9298 60.6486 50.1908 58.7528 53.0281C56.857 55.8654 54.2908 58.1913 51.2813 59.7999C48.2719 61.4084 44.9122 62.25 41.4998 62.25L51.2813 71.38L41.4998 83Z" fill="url(#paint0_linear_53_79)"/>
<defs>
<linearGradient id="paint0_linear_53_79" x1="41.4999" y1="0" x2="41.4999" y2="83" gradientUnits="userSpaceOnUse">
<stop stop-color="#CE4DA4"/>
<stop offset="1" stop-color="#CE4DA4"/>
</linearGradient>
</defs>
</svg>
